P1
# CREATOR: GIMP PNM Filter Version 1.1
28 24
1111111111111111111111111111100000011111111111111111111110000001011111
0100000110001110011111011111011101110111011001111100111001110111011101
1001111100111001110111011101100111111011101111011101110110011111100100
1111011101110110011111100100111101110111011001111111010111110111011101
1000001111000111110111011101100000111100011111011101110110011111111011
1111011100000110011111110001111101110111011001111111000111110111011101
1001111111010111110111011101100111111001001111011101110110011111100100
1111011101110110011111101110111101110111011001111110111011110111011101
1000000100111001110111011101100000010011100111011101110110000001011111
010000010111011111111111111111111111111111