P1
#ToadPanda
20 18
0 0 0 0 0 0 0 0 0 0 0 0 0 0 0 0 0 0 0 0
0 0 0 1 1 0 0 1 1 1 1 1 1 0 0 1 1 0 0 0
0 0 1 1 1 1 1 0 0 0 0 0 0 1 1 1 1 1 0 0
0 1 1 1 1 0 0 0 0 0 0 0 0 0 0 1 1 1 1 0
0 1 1 1 0 0 0 0 0 0 0 0 0 0 0 0 1 1 1 0
0 1 1 1 0 0 1 1 1 0 0 1 1 1 0 0 1 1 1 0
0 0 1 0 0 1 1 0 1 0 0 1 0 1 1 0 0 1 0 0
0 0 1 0 0 1 1 1 0 0 0 0 1 1 1 0 0 1 0 0
0 0 1 0 0 1 1 0 0 1 1 0 0 1 1 0 0 1 0 0
0 0 1 0 0 0 0 0 0 1 1 0 0 0 0 0 0 1 0 0
0 0 1 0 0 0 0 0 0 0 0 0 0 0 0 0 0 1 0 0
0 0 1 0 0 0 1 1 1 1 1 1 1 1 0 0 0 1 0 0
0 0 0 1 1 1 0 0 1 0 0 1 0 0 1 1 1 0 0 0
0 0 0 0 1 0 0 0 1 0 0 1 0 0 0 1 0 0 0 0
0 0 0 0 1 0 0 0 0 0 0 0 0 0 0 1 0 0 0 0
0 0 0 0 0 1 0 0 0 0 0 0 0 0 1 0 0 0 0 0
0 0 0 0 0 0 1 1 1 1 1 1 1 1 0 0 0 0 0 0
0 0 0 0 0 0 0 0 0 0 0 0 0 0 0 0 0 0 0 0